<?xml version="1.0" encoding="UTF-8"?>
<svg width="354.51" height="317.53" version="1.1" viewBox="0 0 354.51 317.53" xmlns="http://www.w3.org/2000/svg"><defs><clipPath id="clipPath127"><path d="M 0,563.744 H 1015.172 V 0 H 0 Z"/></clipPath></defs><g transform="matrix(1.3333 0 0 -1.3333 -499.3 555.95)"><g transform="translate(518.83 382.17)"><path d="m0 0 15.205-26.336-15.205-26.34h-30.411z" fill="#ffb92c"/></g><g transform="translate(473.21 355.83)"><path d="m0 0 15.213 26.336h30.411l-30.411-52.676z" fill="#ffe242"/></g><g transform="translate(518.83 382.17)"><path d="m0 0 15.205-26.336-15.205-26.34h-30.411l-15.213 26.34 15.213 26.336zm-49.962-26.336 17.378-30.098h34.753l17.378 30.098-17.378 30.096h-34.753z" fill="#191919"/></g><g transform="translate(567.97 354.34)"><path d="m0 0 15.209-26.336-15.209-26.344h-30.414z" fill="#ffb92c"/></g><g transform="translate(522.35 328)"><path d="m0 0 15.206 26.336h30.414l-30.414-52.68z" fill="#ffe242"/></g><g transform="translate(567.97 354.34)"><path d="m0 0 15.209-26.34-15.209-26.34h-30.414l-15.206 26.34 15.206 26.34zm-49.962-26.34 17.378-30.097h34.757l17.375 30.097-17.375 30.1h-34.757z" fill="#191919"/></g><g transform="translate(519.32 325.73)"><path d="m0 0 15.206-26.339-15.206-26.339h-30.411z" fill="#ffb92c"/></g><g transform="translate(473.7 299.39)"><path d="m0 0 15.205 26.339h30.411l-30.411-52.678z" fill="#ffe242"/></g><g transform="translate(470.19 353.59)"><path d="m0 0 15.209-26.338-15.209-26.338h-30.411z" fill="#ffb92c"/></g><g transform="translate(424.57 327.25)"><path d="m0 0 15.209 26.338h30.411l-30.411-52.676z" fill="#ffe242"/></g><g transform="translate(470.19 353.59)"><path d="m0 0 15.209-26.34-15.209-26.336h-30.411l-15.209 26.336 15.209 26.34zm-49.962-26.34 17.378-30.096h34.753l17.378 30.096-17.378 30.1h-34.753z" fill="#191919"/></g><g transform="translate(568.5 297.9)"><path d="m0 0 15.209-26.335-15.209-26.344h-30.412z" fill="#ffb92c"/></g><g transform="translate(522.88 271.56)"><path d="m0 0 15.205 26.335h30.412l-30.412-52.679z" fill="#ffe242"/></g><g transform="translate(568.5 297.9)"><path d="m0 0 15.209-26.335-15.209-26.344h-30.412l-15.205 26.344 15.205 26.335zm-49.959-26.335 17.379-30.1h34.748l17.375 30.1-17.375 30.092h-34.748z" fill="#191919"/></g><g transform="translate(519.85 269.3)"><path d="m0 0 15.206-26.339-15.206-26.34h-30.414z" fill="#ffb92c"/></g><g transform="translate(474.23 242.96)"><path d="m0 0 15.206 26.339h30.414l-30.414-52.679z" fill="#ffe242"/></g><g transform="translate(470.72 297.16)"><path d="m0 0 15.205-26.338-15.205-26.336h-30.415z" fill="#ffb92c"/></g><g transform="translate(425.1 270.82)"><path d="m0 0 15.205 26.338h30.415l-30.415-52.674z" fill="#ffe242"/></g><g transform="translate(470.72 297.16)"><path d="m0 0 15.205-26.34-15.205-26.334h-30.415l-15.205 26.334 15.205 26.34zm-49.962-26.34 17.378-30.094h34.753l17.378 30.094-17.378 30.1h-34.753z" fill="#191919"/></g><g transform="translate(519.32 325.73)"><path d="m0 0 15.206-26.337-15.206-26.339h-30.411l-15.205 26.339 15.205 26.337zm-49.958-26.337 17.375-30.097h34.756l17.375 30.097-17.375 30.097h-34.756z" fill="#191919"/></g><g transform="translate(519.85 269.3)"><path d="m0 0 15.206-26.339-15.206-26.34h-30.414l-15.206 26.34 15.206 26.339zm-49.962-26.339 17.378-30.096h34.753l17.379 30.096-17.379 30.097h-34.753z" fill="#191919"/></g><g clip-path="url(#clipPath127)"><g transform="translate(639.17 264.5)"><path d="m0 0c-0.753 1.632-1.817 3.019-3.151 4.135-1.413 1.152-3.041 1.938-4.88 2.353-1.781 0.412-3.675 0.446-5.625 0.105l-53.655-9.464v1.946c0 2.039-0.393 3.932-1.19 5.638-0.749 1.631-1.81 3.017-3.147 4.13-1.406 1.155-3.041 1.943-4.88 2.362-1.776 0.406-3.678 0.438-5.628 0.099l-24.027-4.239-5.654-0.997v-16.787l-19.462-3.435-14.152-2.493-12.907-2.281-58.279-10.274v21.201l-8.824-1.554-15.917-2.81c-17.72-3.122-24.127-13.067-23.236-27.333 0.522-8.37 4.464-14.965 11.148-17.868l-8.775-1.554v-24.933l68.273 12.037c0.446 0.082 0.891 0.182 1.339 0.301v-13.971l8.821 1.557 16.002 2.822v14l154.15 27.186c1.95 0.343 3.844 1.045 5.632 2.085 1.836 1.066 3.47 2.438 4.857 4.067 1.343 1.573 2.406 3.336 3.159 5.241 0.798 1.981 1.198 4.027 1.198 6.07v17.022c0 2.039-0.4 3.935-1.19 5.636" fill="#191919"/></g><g transform="translate(543.54 264.89)"><path d="m0 0-7.183-1.271v-30.712l7.183 1.266z" fill="#ffe242"/></g><g transform="translate(494.86 225.6)"><path d="m0 0 3.73 0.658z" fill="#ffe242"/></g><g transform="translate(578.91 240.41)"><path d="m0 0 2.537 0.452z" fill="#ffe242"/></g><g transform="translate(622.87 248.17)"><path d="m0 0h4e-3l-3.801-0.671z" fill="#ffe242"/></g><g transform="translate(446.46 211.01)"><path d="m0 0c0-0.636-0.118-1.265-0.363-1.872-0.248-0.631-0.593-1.209-1.027-1.713-0.43-0.505-0.927-0.922-1.516-1.261-0.572-0.334-1.18-0.556-1.802-0.669l-16.114-2.84c-0.59-0.102-1.176-0.091-1.691 0.022-0.505 0.115-0.924 0.31-1.279 0.606-0.363 0.295-0.645 0.669-0.86 1.135-0.223 0.478-0.324 1.012-0.324 1.635v4.987l3.995 0.708v-3.167c0-0.763 0.303-1.43 0.844-1.861 0.419-0.356 0.935-0.537 1.488-0.537l12.427 2.154c0.617 0.106 1.158 0.423 1.573 0.908 0.422 0.495 0.649 1.107 0.649 1.769v3.726l4 0.708zm-5.591 5.065v-5.061c0-0.282-0.089-0.53-0.267-0.734-0.178-0.211-0.385-0.333-0.637-0.374l-11.991-2.118c-0.245-0.041-0.46 7e-3 -0.634 0.156-0.178 0.141-0.268 0.352-0.268 0.637v21.876l-7.181-1.271v-23.133c0-0.853 0.156-1.613 0.47-2.299 0.316-0.682 0.749-1.253 1.298-1.702 0.545-0.45 1.187-0.758 1.925-0.931 0.745-0.167 1.516-0.181 2.324-0.037l16.117 2.844c0.813 0.14 1.591 0.429 2.326 0.853 0.741 0.434 1.386 0.966 1.935 1.613 0.538 0.641 0.972 1.361 1.294 2.158 0.312 0.797 0.475 1.62 0.475 2.458v23.147l-7.186-1.271z" fill="#ffe242"/></g><g transform="translate(521.59 219.57)"><path d="m0 0-3.993-0.706v9.126l3.993 0.71zm11.427 29.565-10.997-1.933c-0.805-0.149-1.591-0.434-2.322-0.861-0.741-0.429-1.386-0.967-1.923-1.61-0.557-0.643-0.983-1.359-1.302-2.16-0.316-0.792-0.471-1.613-0.471-2.453v-23.15l7.179 1.269v21.874c0 0.285 0.089 0.524 0.273 0.736 0.167 0.205 0.383 0.333 0.623 0.372l8.94 1.579z" fill="#ffe242"/></g><g transform="translate(401.53 198.4)"><path d="m0 0-17.359-3.059v4.057l17.912 3.16c3.399 0.596 6.381 3.122 7.704 6.424l4.164 0.734c-1.709-5.631-6.719-10.307-12.421-11.316m0.278 27.262-7.178-1.267c-3.938-0.694-7.122 1.936-7.122 5.87 0 3.932 3.184 7.682 7.122 8.375l15.914 2.809v7.292l-15.914-2.806c-7.96-1.406-14.415-8.992-14.415-16.961 0-7.958 6.455-13.273 14.415-11.872l7.178 1.263v8e-3c3.93 0.689 7.119-1.932 7.119-5.87 0-0.721-0.137-1.425-0.337-2.114-0.887-3.085-3.571-5.7-6.782-6.263l-19.232-3.39v-7.293l19.232 3.389c7.252 1.283 13.196 7.711 14.204 14.865 0.097 0.693 0.208 1.385 0.208 2.097 0 7.958-6.452 13.275-14.412 11.868" fill="#ffe242"/></g><g transform="translate(562.92 231.54)"><path d="m0 0c0-0.654-0.118-1.268-0.371-1.883-0.237-0.612-0.586-1.19-1.016-1.706-0.419-0.495-0.938-0.923-1.524-1.265-0.567-0.33-1.164-0.551-1.802-0.663l-24.708-4.36v3.106l4.445 0.785v6.019l3.997 0.705v-6.014l14.753 2.597c0.623 0.106 1.172 0.432 1.58 0.922 0.419 0.493 0.649 1.109 0.649 1.763v3.728l3.997 0.704zm-0.178 21.112c-0.546 0.45-1.19 0.764-1.932 0.931-0.727 0.167-1.512 0.182-2.321 0.041l-10.241-1.81-5.776-1.019v-6.341l13.948 2.462c0.26 0.045 0.468-2e-3 0.638-0.148 0.177-0.143 0.267-0.366 0.267-0.645v-14.577c0-0.287-0.09-0.528-0.267-0.738-0.17-0.207-0.378-0.335-0.638-0.38l-12.884-2.273v6.02l-7.182-1.267v-6.014l-4.442-0.79v-6.334l4.442 0.785 22.135 3.902c0.809 0.143 1.594 0.428 2.321 0.856 0.742 0.428 1.386 0.96 1.932 1.608 0.541 0.644 0.979 1.358 1.294 2.161 0.319 0.794 0.475 1.611 0.475 2.458v17.119c0 0.844-0.156 1.61-0.475 2.293-0.315 0.681-0.753 1.251-1.294 1.7" fill="#ffe242"/></g><g transform="translate(478.76 216.71)"><path d="m0 0c0-0.642-0.119-1.272-0.36-1.873-0.252-0.63-0.601-1.205-1.027-1.716-0.437-0.509-0.93-0.924-1.52-1.265-0.568-0.332-1.176-0.55-1.802-0.666l-8.372-1.473v3.107l6.866 1.207c0.609 0.113 1.153 0.421 1.558 0.903 0.429 0.497 0.656 1.11 0.656 1.776v3.725l4.001 0.71zm-20.982-22.299-4.001-0.708v23.036l4.001 0.708zm20.8 43.41c-0.546 0.453-1.19 0.765-1.924 0.931-0.739 0.167-1.517 0.179-2.321 0.041l-22.146-3.91v-43.074l7.185 1.269v36.732l12.895 2.28c0.245 0.038 0.457-0.014 0.631-0.156 0.177-0.145 0.27-0.353 0.27-0.638v-14.586c0-0.286-0.093-0.526-0.27-0.732-0.174-0.203-0.386-0.338-0.631-0.376l-8.183-1.451v-6.333l10.249 1.802c0.804 0.146 1.582 0.433 2.321 0.861 0.734 0.43 1.378 0.967 1.924 1.605 0.552 0.645 0.979 1.363 1.301 2.162 0.316 0.789 0.475 1.61 0.475 2.462v17.114c0 0.85-0.159 1.615-0.475 2.298-0.322 0.686-0.749 1.251-1.301 1.699" fill="#ffe242"/></g><g transform="translate(559.87 250.43)"><path d="m0 0v14.204c0 0.846-0.156 1.613-0.479 2.299-0.314 0.683-0.749 1.25-1.293 1.698-0.549 0.448-1.187 0.76-1.928 0.925-0.735 0.171-1.517 0.191-2.321 0.043l-20.804-3.675v-6.332l18.738 3.303c0.245 0.045 0.456-7e-3 0.634-0.153 0.171-0.143 0.264-0.355 0.264-0.644v-9.514" fill="#ffe242"/></g><g transform="translate(491.99 217.49)"><path d="m0 0 12.172 2.109c0.608 0.108 1.142 0.419 1.576 0.916 0.419 0.494 0.638 1.101 0.638 1.765v0.827l4.005 0.704v-1.531c0-0.656-0.123-1.268-0.364-1.872-0.249-0.646-0.597-1.217-1.027-1.717-0.43-0.508-0.927-0.924-1.513-1.264-0.579-0.334-1.186-0.564-1.805-0.675l-15.855-2.788c-0.593-0.102-1.161-0.097-1.694 0.018-0.493 0.117-0.908 0.316-1.272 0.612-0.356 0.291-0.638 0.666-0.857 1.134-0.226 0.485-0.333 1.016-0.333 1.63v4.996l4.008 0.706v-3.166c0-0.761 0.3-1.425 0.845-1.878 0.434-0.344 0.931-0.526 1.476-0.526m18.738 25.995c-0.541 0.448-1.182 0.756-1.92 0.934-0.745 0.163-1.52 0.175-2.328 0.032l-16.388-2.891c-0.809-0.14-1.581-0.429-2.322-0.858-0.741-0.428-1.383-0.966-1.931-1.611-0.545-0.638-0.976-1.357-1.286-2.154-0.32-0.794-0.479-1.613-0.479-2.459v-17.12c0-0.846 0.159-1.609 0.479-2.295 0.31-0.684 0.741-1.254 1.286-1.696 0.548-0.456 1.19-0.764 1.931-0.931 0.741-0.171 1.513-0.183 2.322-0.041l15.854 2.792c0.815 0.141 1.591 0.432 2.332 0.861s1.379 0.965 1.928 1.605c0.549 0.645 0.979 1.364 1.294 2.161s0.468 1.62 0.468 2.466v3.432l-7.187-1.27v-2.162c0-0.285-0.085-0.534-0.256-0.737-0.181-0.204-0.392-0.328-0.64-0.373l-11.728-2.068c-0.245-0.046-0.46 4e-3 -0.638 0.149-0.175 0.14-0.263 0.361-0.263 0.643v14.584c0 0.283 0.088 0.524 0.263 0.731 0.178 0.21 0.393 0.326 0.638 0.38l12.261 2.158c0.241 0.047 0.453-9e-3 0.638-0.153 0.17-0.142 0.256-0.361 0.256-0.642v-2.753c0-0.282-0.086-0.527-0.256-0.736-0.185-0.208-0.397-0.33-0.638-0.378l-9.551-1.68v-5.811l3.73 0.659 8.409 1.481c1.654 0.297 2.989 1.014 3.994 2.158 1.008 1.142 1.509 2.58 1.509 4.307v5.291c0 0.845-0.16 1.608-0.479 2.299-0.315 0.68-0.749 1.247-1.302 1.696" fill="#ffe242"/></g><g transform="translate(576.03 232.31)"><path d="m0 0 12.206 2.106c0.605 0.123 1.149 0.441 1.546 0.915 0.419 0.49 0.638 1.102 0.638 1.766v0.824l4.008 0.707v-1.531c0-0.641-0.123-1.257-0.363-1.877-0.245-0.626-0.598-1.204-1.039-1.715-0.43-0.506-0.923-0.924-1.501-1.261-0.586-0.332-1.198-0.561-1.806-0.666l-15.854-2.798c-0.59-0.104-1.164-0.096-1.69 0.022-0.508 0.119-0.928 0.312-1.276 0.601-0.356 0.304-0.649 0.686-0.86 1.144-0.22 0.477-0.33 1.008-0.33 1.629v4.996l3.997 0.711v-3.171c0-0.756 0.307-1.423 0.838-1.859 0.422-0.357 0.937-0.543 1.486-0.543m13.066 15.97c-0.173-0.204-0.385-0.33-0.634-0.367l-9.555-1.688v-5.817l2.537 0.452 9.603 1.694c1.665 0.29 2.984 1.007 3.989 2.154 1.005 1.146 1.51 2.585 1.51 4.305v5.295c0 0.842-0.161 1.613-0.479 2.295-0.319 0.683-0.749 1.25-1.291 1.698-0.552 0.45-1.189 0.757-1.932 0.925-0.734 0.167-1.508 0.184-2.328 0.045l-16.373-2.892c-0.812-0.139-1.594-0.426-2.321-0.858-0.745-0.435-1.395-0.968-1.943-1.609-0.534-0.646-0.975-1.365-1.29-2.155-0.319-0.794-0.471-1.62-0.471-2.462v-17.119c0-0.848 0.152-1.609 0.471-2.295 0.315-0.687 0.756-1.253 1.29-1.702 0.548-0.448 1.198-0.756 1.943-0.933 0.727-0.161 1.509-0.175 2.321-0.031l15.854 2.796c0.801 0.138 1.58 0.427 2.31 0.849 0.752 0.436 1.391 0.971 1.932 1.613 0.553 0.644 0.986 1.362 1.305 2.162 0.315 0.795 0.474 1.613 0.474 2.462v3.426l-7.192-1.265v-2.161c0-0.286-0.086-0.53-0.264-0.734-0.167-0.212-0.386-0.334-0.63-0.378l-11.731-2.064c-0.249-0.05-0.46 2e-3 -0.634 0.15-0.175 0.139-0.267 0.36-0.267 0.641v14.583c0 0.28 0.092 0.519 0.267 0.733 0.174 0.203 0.385 0.335 0.634 0.376l12.261 2.158c0.249 0.048 0.461-2e-3 0.634-0.152 0.174-0.139 0.264-0.358 0.264-0.642v-2.755c0-0.281-0.09-0.52-0.264-0.733" fill="#ffe242"/></g><g transform="translate(607.86 237.92)"><path d="m0 0 12.169 2.108c0.612 0.106 1.16 0.421 1.591 0.925 0.407 0.489 0.623 1.098 0.623 1.75v0.829l4.008 0.71v-1.539c0-0.652-0.122-1.262-0.357-1.868-0.252-0.631-0.599-1.201-1.034-1.713-0.434-0.515-0.927-0.928-1.505-1.264-0.59-0.339-1.19-0.562-1.816-0.671l-15.844-2.796c-0.601-0.112-1.172-0.101-1.694 0.022-0.501 0.118-0.927 0.319-1.269 0.608-0.374 0.304-0.66 0.674-0.867 1.142-0.223 0.467-0.326 1.005-0.326 1.624v4.998l3.997 0.704v-3.166c0-0.76 0.307-1.433 0.838-1.859 0.415-0.355 0.93-0.544 1.486-0.544m13.06 15.974c-0.179-0.208-0.387-0.33-0.631-0.375l-9.559-1.683v-5.814l8.346 1.472 3.801 0.671c1.654 0.291 2.988 1.008 3.986 2.152 1.004 1.152 1.509 2.582 1.509 4.312v5.289c0 0.846-0.159 1.613-0.479 2.296-0.315 0.682-0.749 1.249-1.294 1.699-0.541 0.449-1.186 0.755-1.927 0.926-0.739 0.174-1.521 0.185-2.318 0.042l-16.389-2.89c-0.807-0.14-1.586-0.43-2.328-0.856-0.738-0.431-1.376-0.968-1.928-1.61-0.537-0.643-0.975-1.362-1.29-2.158-0.316-0.791-0.475-1.614-0.475-2.458v-17.122c0-0.849 0.159-1.609 0.475-2.294 0.315-0.685 0.753-1.251 1.29-1.703 0.552-0.449 1.19-0.76 1.928-0.931 0.742-0.167 1.521-0.177 2.328-0.035l15.855 2.794c0.812 0.143 1.583 0.432 2.328 0.86 0.734 0.43 1.376 0.969 1.921 1.611 0.549 0.64 0.982 1.359 1.306 2.154 0.314 0.795 0.47 1.622 0.47 2.46v3.438l-7.193-1.269v-2.169c0-0.281-0.089-0.518-0.264-0.73-0.17-0.204-0.381-0.333-0.63-0.378l-11.735-2.07c-0.244-0.038-0.452 8e-3 -0.626 0.157-0.182 0.144-0.267 0.355-0.267 0.641v14.586c0 0.279 0.085 0.523 0.267 0.729 0.174 0.204 0.382 0.338 0.626 0.375l12.266 2.163c0.244 0.041 0.452-0.013 0.631-0.149 0.181-0.15 0.262-0.355 0.262-0.645v-2.753c0-0.287-0.081-0.526-0.262-0.735" fill="#ffe242"/></g><g transform="translate(442.32 215.52)"><path d="m0 0-0.66-0.119v-4.394c0-0.466-0.155-0.901-0.451-1.251-0.293-0.346-0.676-0.564-1.095-0.643l-12.436-2.158c-0.233 0.018-0.578 0.137-0.848 0.367-0.357 0.291-0.549 0.739-0.549 1.253v4.116l-0.939-0.165-3.997-0.707-0.66-0.114v-5.659c0-0.738 0.134-1.382 0.401-1.968 0.267-0.582 0.623-1.046 1.08-1.415 0.451-0.376 0.978-0.624 1.604-0.773 0.342-0.074 0.694-0.109 1.058-0.109 0.31 0 0.626 0.027 0.949 0.087l16.113 2.839c0.719 0.124 1.412 0.382 2.066 0.761 0.671 0.387 1.23 0.857 1.723 1.433 0.487 0.571 0.875 1.225 1.158 1.945 0.278 0.693 0.422 1.42 0.422 2.157v5.388l-0.934-0.165z" fill="#ffb92c"/></g><g transform="translate(517.46 228.77)"><path d="m0 0-0.66-0.111v-10.743l0.937 0.165 3.997 0.708 0.661 0.116v10.74l-0.931-0.164z" fill="#ffb92c"/></g><g transform="translate(409.65 209.76)"><path d="m0 0-0.441-0.078-0.163-0.412c-1.232-3.063-4.016-5.391-7.109-5.936l-17.904-3.155-0.664-0.111v-5.677l0.938 0.163 17.36 3.059c5.866 1.035 11.231 5.916 13.044 11.865l0.367 1.246-1.272-0.231z" fill="#ffb92c"/></g><g transform="translate(558.78 236.06)"><path d="m0 0-0.656-0.117v-4.394c0-0.464-0.16-0.899-0.456-1.249-0.301-0.352-0.675-0.577-1.102-0.649l-13.83-2.442v6.022l-0.937-0.167-3.998-0.704-0.66-0.119v-6.016l-3.778-0.668-0.663-0.112v-4.726l0.937 0.165 24.712 4.357c0.724 0.128 1.41 0.387 2.055 0.761 0.667 0.388 1.249 0.873 1.731 1.435 0.494 0.586 0.879 1.235 1.15 1.934 0.281 0.697 0.427 1.413 0.427 2.172v5.388l-0.932-0.165z" fill="#ffb92c"/></g><g transform="translate(453.65 217.52)"><path d="m0 0-0.66-0.119v-24.652l0.933 0.168 4.001 0.703 0.654 0.117v24.65l-0.928-0.166z" fill="#ffb92c"/></g><g transform="translate(474.62 221.22)"><path d="m0 0-0.652-0.115v-4.396c0-0.474-0.163-0.905-0.464-1.257-0.289-0.339-0.663-0.562-1.09-0.636l-6.87-1.214-0.656-0.116v-4.719l0.933 0.163 8.372 1.474c0.716 0.129 1.413 0.383 2.062 0.762 0.675 0.389 1.238 0.861 1.724 1.443 0.49 0.57 0.879 1.221 1.161 1.934 0.282 0.691 0.422 1.417 0.422 2.166v5.384l-0.938-0.163z" fill="#ffb92c"/></g><g transform="translate(506.24 223.9)"><path d="m0 0-0.663-0.116v-1.498c0-0.469-0.155-0.905-0.448-1.248-0.313-0.352-0.676-0.573-1.11-0.651l-12.169-2.105c-0.218 0.014-0.551 0.137-0.83 0.359-0.367 0.297-0.559 0.731-0.559 1.259v4.111l-0.935-0.161-4.005-0.706-0.656-0.115v-5.665c0-0.729 0.13-1.372 0.404-1.96 0.268-0.58 0.619-1.049 1.073-1.42 0.466-0.382 0.985-0.634 1.608-0.772 0.341-0.075 0.697-0.11 1.054-0.11 0.31 0 0.626 0.027 0.952 0.081l15.85 2.794c0.712 0.124 1.413 0.382 2.07 0.77 0.663 0.388 1.227 0.854 1.727 1.426 0.487 0.574 0.871 1.224 1.154 1.948 0.282 0.7 0.419 1.408 0.419 2.165v2.48l-0.931-0.159z" fill="#ffb92c"/></g><g transform="translate(590.28 238.71)"><path d="m0 0-0.652-0.116v-1.494c0-0.472-0.16-0.906-0.456-1.25-0.286-0.337-0.657-0.564-1.087-0.651l-12.184-2.102c-0.229 0.012-0.567 0.134-0.841 0.365-0.364 0.293-0.56 0.736-0.56 1.253v4.116l-0.927-0.163-4.001-0.709-0.66-0.114v-5.666c0-0.745 0.13-1.383 0.404-1.965 0.256-0.558 0.619-1.038 1.072-1.42 0.453-0.367 0.971-0.615 1.602-0.762 0.345-0.08 0.704-0.117 1.061-0.117 0.307 0 0.629 0.029 0.956 0.089l15.854 2.792c0.701 0.122 1.398 0.38 2.058 0.762 0.671 0.391 1.235 0.862 1.716 1.433 0.498 0.582 0.89 1.237 1.172 1.943 0.275 0.712 0.419 1.419 0.419 2.166v2.48l-0.934-0.163z" fill="#ffb92c"/></g><g transform="translate(626.11 245.03)"><path d="m0 0-4.001-0.712-0.656-0.109v-1.5c0-0.461-0.159-0.894-0.448-1.239-0.305-0.353-0.675-0.578-1.106-0.656l-12.169-2.1c-0.229 9e-3 -0.563 0.129-0.849 0.361-0.356 0.293-0.548 0.73-0.548 1.254v4.115l-0.935-0.163-4-0.708-0.656-0.115v-5.665c0-0.743 0.129-1.385 0.404-1.966 0.259-0.565 0.611-1.034 1.074-1.416 0.438-0.363 0.983-0.623 1.599-0.766 0.333-0.08 0.686-0.122 1.049-0.122 0.311 0 0.638 0.029 0.968 0.093l15.839 2.792c0.727 0.132 1.406 0.382 2.077 0.766 0.674 0.4 1.23 0.867 1.709 1.438 0.493 0.571 0.89 1.22 1.168 1.939 0.278 0.695 0.422 1.405 0.422 2.158v2.492z" fill="#ffb92c"/></g><g transform="translate(541.98 311.04)"><path d="m0 0c-5.743 5.031-9.874 5.677-13.874 6.3-2.103 0.326-4.09 0.634-6.403 1.605 0.033 0.187 0.063 0.366 0.089 0.55l0.014 0.058c0.349 0.693 1.657 3.699-0.293 7.204-1.575 2.833-5.535 4.422-8.246 5.512-0.512 0.209-0.952 0.383-1.267 0.532-0.617 0.297-0.627 0.315-1.187 1.283-0.408 0.7-1.086 1.868-2.406 3.67-1.877 2.57-5.24 4.273-8.784 4.44-0.712 0.041-1.41 0.01-2.087-0.091 1.572 3.17 2.468 6.517 2.67 9.974 0.254 4.383 0.044 15.452-7.402 23.663-1.638 1.798-3.552 3.341-5.691 4.594 1.972 2.855 5.336 9.04 4.713 17.248-1.209 15.947-11.628 18.908-11.995 19.003-2.236 0.845-4.182 0.217-4.609-1.302-0.248-0.908 0.153-1.853 0.953-2.332 0.259-0.178 0.63-0.306 1.245-0.51 2.827-0.962 10.349-3.511 11.224-15.101 0.575-7.586-2.862-13.362-4.423-15.56-3.181 1.357-6.766 2.145-10.671 2.349-0.474 0.384-1.372 1.025-2.606 1.597-0.357 4.286-2.629 8.975-6.604 13.599-5.992 6.971-13.037 7.724-15.788 7.724-1.509 0-2.554-0.204-2.858-0.336-1.309-0.258-4.305-1.704-3.949-3.729 0.3-1.76 2.217-2.239 4.742-1.331l0.164 0.041c0.603 0.19 2.231 0.629 4.367 0.629 2.981 0 7.293-0.879 10.9-5.078 3.116-3.626 5.062-7.233 5.677-10.52-0.848 0.132-1.665 0.177-2.551 0.12-2.102-0.13-3.852-0.801-5.543-1.45-1.739-0.671-3.385-1.305-5.354-1.305-0.752 0-1.505 0.093-2.302 0.274-0.842 0.198-1.706-0.345-1.902-1.162-0.026-0.102-0.567-2.311 1.019-4.308-0.334-0.818-0.711-2.049-0.7-3.383-1.881-2.307-2.822-4.439-3.23-5.557-1.936-0.617-3.344-1.83-4.198-3.599-1.286-2.702-1.292-5.881-0.867-8.872l-0.189-0.334c-0.527 1.469-2.877 4.687-6.637 5.574-0.448 0.144-12.209 2.795-16.788-4.204-2.102-3.21-2.825-5.563-1.906-8.59 0.43-1.426 1.227-2.701 2.255-3.715 0.192-0.592 0.774-1.95 2.287-2.972-0.3-0.734-0.446-1.63-0.278-2.701 0.538-3.406 3.311-3.555 4.494-3.617 0.141-8e-3 0.27-0.015 0.378-0.027 0.585-0.062 0.96-0.24 1.479-0.489 0.868-0.419 1.95-0.937 4.331-1.097 0.167-9e-3 0.334-0.017 0.504-0.017 0.571 0 1.379 0.072 2.187 0.325 0.687-0.794 1.443-1.787 2.352-2.981 0.771-1.009 1.635-2.147 2.64-3.401 5.368-6.692 13.503-7.48 15.083-7.569l0.667-0.039c1.628-0.085 1.628-0.085 2.911-1.861 1.29-1.794 2.84-3.059 3.93-3.821 0.503-0.33 0.575-0.519 0.678-0.803 0.764-2.094 1.736-3.842 2.392-4.785 0.778-1.11 0.863-1.67 1.116-3.341 0.222-1.502 0.564-3.779 1.646-7.683 0.998-3.611 3.082-7.134 6.192-10.475-0.646-3.196-0.638-6.944-0.567-8.945 0.044-1.189-0.12-1.957-0.279-2.708-0.192-0.922-0.396-1.873-0.073-3.155 0.619-2.477 2.343-4.2 4.986-4.986 2.002-0.588 8.988-4.64 10.938-6.502 1.817-1.736 3.726-5.663 4.145-6.961 0.601-1.879 2.251-3.049 4.309-3.049 1.179 0 2.328 0.547 3.159 1.506 0.801 0.93 1.661 2.674 1.212 5.702-1.057 7.148-2.729 11.046-4.961 11.572-1.268 0.304-2.433-0.045-3.133-0.312-0.089-0.037-0.33-0.129-0.266-0.163-0.364 0.17-0.821 1.068-1.228 1.867-0.679 1.344-1.531 3.022-3.182 4.151-0.982 0.673-1.879 1.079-2.617 1.412-0.311 0.142-0.967 0.438-1.053 0.522-0.04 0.402 0.564 1.479 0.961 2.193 0.111 0.188 0.218 0.385 0.322 0.57 1.398-0.24 2.536-0.296 3.771-0.296 2.24 0 4.186 0.296 5.583 0.601 0.031-0.088 0.068-0.177 0.109-0.268 1.608-3.972 3.744-6.129 4.745-7.136 0.078-0.077 0.141-0.138 0.152-0.151 0.056-0.08 0.13-0.23 0.289-0.547 0.508-0.988 1.35-2.639 2.532-3.667 1.127-0.98 2.437-2.197 3.772-4.23 0.422-0.638 0.811-1.189 1.156-1.671 0.76-1.062 1.217-1.701 1.379-2.427l0.041-0.165c0.319-1.388 0.976-4.28 0.92-5.974-0.074-2.155-4e-3 -4.585 1.761-6.159 0.441-0.391 1.038-0.641 1.702-0.816l8.064 4.655c0.352 1.793-0.23 3.551-0.83 5.271l-0.052 0.148c-0.86 2.481-2.095 4.598-3.218 5.525-0.208 0.17-0.408 1.238-0.538 1.943l-0.193 0.982c-0.419 2.121-1.294 6.532-3.8 8.658-0.991 0.843-1.773 1.357-2.359 1.746-0.685 0.449-0.834 0.571-0.893 0.715-0.808 1.914-0.927 3.645-1.045 5.325-0.082 1.149-0.167 2.338-0.483 3.513-0.241 0.896-0.63 1.754-1.131 2.508 0.122 0.153 0.242 0.308 0.353 0.464 0.163 0.196 0.322 0.444 0.485 0.697 1.347-0.414 2.792-0.823 4.261-1.205 5.238-1.268 11.346-2.257 11.449-1.976 0.137 0.352-3.73 4.3-8.376 8.001-1.471 1.142-2.914 2.191-4.23 3.078 0.074 0.318 0.13 0.619 0.159 0.873 0.022 0.161 0.037 0.324 0.056 0.493 0 0.031 4e-3 0.058 4e-3 0.083 0.571 4.063-1.247 9.765-1.247 9.765s2.025 0.39 3.556 1.006c0 0 1.995-2.443 7.171-4.579 2.985-1.231 5.433-2.294 7.067-3.01l4e-3 -2e-3c0.671-0.281 1.297-0.562 1.902-0.848 0.178-0.081 0.286-0.13 0.286-0.13l-4e-3 -1e-3c0.867-0.414 1.687-0.844 2.488-1.3 7.663-4.372 9.05-10.689 9.065-10.751 0.133-0.698 0.727-1.227 1.39-1.277l0.175-0.011c0.659 0 1.257 0.411 1.486 1.016 0.216 0.557 5.143 13.582-3.318 20.997" fill="#191919"/></g><g transform="translate(530.32 302.47)"><path d="m0 0c0.093-0.043 0.189-0.087 0.282-0.132l3e-3 2e-3s-0.107 0.048-0.285 0.13" fill="#ffb92c"/></g><g transform="translate(526.42 303.65)"><path d="m0 0c0.741 0 1.397-0.111 1.991-0.33-1.636 0.718-4.083 1.78-7.067 3.011-5.176 2.135-7.171 4.579-7.171 4.579-1.531-0.615-3.556-1.006-3.556-1.006s1.817-5.701 1.246-9.765c2.881 4e-3 5.61 0.983 8.254 1.934 2.154 0.774 4.375 1.577 6.303 1.577" fill="#681717"/></g><g transform="translate(484.48 306.44)"><path d="m0 0c0.256-0.409 0.542-0.865 0.805-1.459 0.229-0.53 0.722-0.634 1.1-0.638 0.446 4e-3 0.872 0.175 1.188 0.427-0.731 0.571-1.591 1.461-1.989 2.933-0.162 0.59-0.192 1.157-0.155 1.702-0.407 0.278-0.997 0.756-1.49 1.461-0.253-0.468-0.472-1.098-0.4-1.884 0.118-1.228 0.477-1.806 0.941-2.542" fill="#ffb92c"/></g><g transform="translate(481.98 347.33)"><path d="m0 0c-0.385 0.209-0.871 0.061-1.078-0.324-0.205-0.386-0.068-0.868 0.318-1.077 0.037-0.018 0.279-0.138 0.653-0.281h-4e-3c0.467-0.2 0.808-0.289 0.092-1.333-5.042-6.634-12.301-7.641-12.387-7.654-0.434-0.053-0.745-0.449-0.694-0.883 0.053-0.408 0.394-0.706 0.794-0.706 0.03 0 0.06 0 0.097 9e-3 0.355 0.041 8.313 1.116 13.756 8.648l7e-3 -3e-3c0.774 1.166 1.071 1.291 1.591 1.307h0.059c0.063 2e-3 0.122 2e-3 0.192 2e-3l-0.029 5e-3c1.09 0.026 2.318 0.252 3.585 0.871 0.398 0.195 0.56 0.675 0.367 1.068-0.196 0.401-0.674 0.556-1.067 0.368-3.231-1.58-6.133-0.079-6.252-0.017" fill="#191919"/></g><g transform="translate(465.62 350.81)"><path d="m0 0s1.494-2.808-0.993-2.49c-2.492 0.317-1.903 1.811-0.905 2.49 0.994 0.675 1.594 0.756 1.898 0" fill="#ffffff"/></g><g transform="translate(464.6 349.2)"><path d="m0 0c-0.4 0-0.727 0.328-0.727 0.73 0 0.399 0.327 0.731 0.727 0.731 0.404 0 0.73-0.332 0.73-0.731 0-0.402-0.326-0.73-0.73-0.73m5.766 2.063c-0.252 0.929-1.298 1.503-2.726 1.503-0.678 0-1.408-0.132-2.095-0.384-2.031-0.728-2.721-1.842-2.951-2.441-0.225-0.589-0.215-1.189 0.03-1.649 0.319-0.609 1.09-0.927 2.221-0.927 0.834 0 1.761 0.178 2.613 0.491 2.051 0.758 3.245 2.161 2.908 3.407" fill="#191919"/></g><g transform="translate(442.85 347.31)"><path d="m0 0" fill="#ffe242"/></g><g transform="translate(458.36 322.7)"><path d="m0 0c0.367-0.495 0.66-0.942 1.224-1.563-0.49 0.676-0.871 1.175-1.224 1.563" fill="#ffffff"/></g><g transform="translate(462.14 318.49)"><path d="m0 0c-0.441 2.361-0.382 4.864 0.782 7.004-2.833 0.407-5.932 1.264-8.972 2.879-10.552 5.607-11.691 13.898-10.701 17.91 0.052 0.229 0.108 0.445 0.156 0.654-0.197 0.12-0.386 0.248-0.552 0.369-0.186-0.578-0.571-1.062-1.027-1.462-0.268-2.842-0.134-10.343 7.511-15.734 6.778-4.779 8.139-6.233 9.029-7.408 0.352-0.388 0.734-0.887 1.223-1.564 0.816-1.131 1.762-2.014 2.551-2.648" fill="#ffb92c"/></g><g transform="translate(504.78 336.12)"><path d="m0 0c2.518-2.848 2.385-4.872 5.369-6.014 1.268-0.488 2.67-0.597 4.057-0.89-0.66 0.293-1.291 0.545-1.828 0.76-0.616 0.248-1.139 0.463-1.506 0.64-1.28 0.619-1.572 1.125-2.225 2.237-0.411 0.704-1.038 1.777-2.262 3.459-1.463 2.001-4.133 3.325-6.973 3.46-2.34 0.122-4.387-0.632-5.636-2.036-0.012-0.014-0.022-0.018-0.037-0.029-0.13-0.171-0.278-0.338-0.423-0.505v-0.02c3.207 2.252 8.95 1.782 11.464-1.062" fill="#ffb92c"/></g><g transform="translate(487.15 289.3)"><path d="m0 0c-1.387-0.213-2.699-0.308-3.923-0.308-3.199 0-5.803 0.623-7.686 1.294 2.225-2.354 4.182-3.73 4.227-3.756 6.096-4.011 13.133-2.897 16.002-2.191-0.293 1.833 0.023 3.207 0.431 4.123 0.604 1.368 1.682 2.392 3.025 2.885 1.024 0.367 2.002 0.552 2.91 0.552 0.015 0 0.031-5e-3 0.049-5e-3 0.804 1.482 1.571 3.516 1.794 5.993-4.386-4.142-10.174-7.564-16.829-8.587" fill="#ffe242"/></g><g transform="translate(509.37 304.31)"><path d="m0 0c-1.397-2.195-3.233-4.386-5.388-6.422-0.222-2.476-0.99-4.511-1.794-5.993 1.365-0.013 2.477-0.447 3.367-1.118 2.317 2.777 3.64 5.957 3.926 9.466 0.108 1.376 0.044 2.727-0.111 4.067" fill="#ffb92c"/></g><g transform="translate(488.13 303.29)"><path d="m0 0c-0.52-0.304-1.091-0.541-1.729-0.541h-0.025c-1.161 0-2.11 0.593-2.548 1.592-0.211 0.488-0.44 0.855-0.689 1.252-0.501 0.793-1.013 1.62-1.168 3.174-2.128-0.39-4.119-0.553-5.917-0.553-3.701 0-6.593 0.639-8.317 1.149 0.17-0.596 0.274-1.219 0.389-2.014 0.2-1.33 0.501-3.308 1.358-6.543 0.741-0.589 4.137-2.944 10.822-2.473 4.267 0.3 7.72 1.482 9.814 2.394-1.304 0.786-1.82 2-1.99 2.563" fill="#ffe242"/></g><g transform="translate(490.12 300.73)"><path d="m0 0c0.338 0.148 0.649 0.29 0.916 0.412-1.053 0.679-1.816 1.684-2.25 2.584-0.186-0.178-0.431-0.297-0.656-0.433 0.17-0.564 0.685-1.778 1.99-2.563" fill="#ffb92c"/></g><g transform="translate(482.75 368.7)"><path d="m0 0c-1.031 0.12-2.287 0.12-3.808-0.186-3.037-0.615-6.176-3.169-8.431-5.379-0.438-1.596-0.794-3.585-0.549-5.391l0.456-3.033s5.384 0.901 9.866 0.495c4.484-0.406 4.101 0.223 4.383 1.019 0.282 0.788 1.776 5.413 0.508 8.307-0.549 1.261-1.361 2.857-2.425 4.168" fill="#ffffff"/><path d="m0 0c-1.387 1.717-3.207 2.938-5.543 2.169-4.127-1.354-5.658-4.75-5.658-4.75s-0.568-1.259-1.038-2.984c2.255 2.21 5.394 4.764 8.431 5.379 1.521 0.306 2.777 0.306 3.808 0.186" fill="#dcdddd"/></g><g transform="translate(457.47 357.78)"><path d="m0 0v1.906c-0.23 0-5.888-1.361-7.883-2.538-1.991-1.177-1.267-3.261-0.767-5.799 0.501-2.54 2.988-4.34 2.988-4.34 2.218 2.353 7.564 4.706 9.87 5.477 1.498 0.496 1.054 2.599 0.557 4.026-2.674-0.3-4.765 1.268-4.765 1.268" fill="#ffffff"/></g><g transform="translate(457.47 359.69)"><path d="m0 0v-1.906s2.091-1.569 4.765-1.268c-0.271 0.775-0.557 1.361-0.557 1.361s-3.985 1.813-4.208 1.813" fill="#dcdddd"/></g><g transform="translate(490.68 336.59)"><path d="m0 0c4e-3 0 0.011 0.01 0.015 0.015 4.148 4.331 6.692 9.733 7.033 15.584 0.237 4.079 0.052 14.379-6.789 21.909-3.659 4.03-8.598 6.473-14.679 7.315 17.813-5.619 18.787-24.2 18.684-30.06-0.097-5.871-4.769-18.077-16.251-22.506 0.085 0.027 0.159 0.068 0.244 0.095 4.642 1.773 8.639 4.408 11.743 7.648" fill="#ffb92c"/></g><g transform="translate(471.85 373.74)"><path d="m0 0c-1.832-1.628-4.583-2.002-5.97-1.936 0.118-0.589 0.36-1.027 0.508-1.26 1.962 0.445 4.079 1.29 5.365 3.012 0.048 0.062 0.068 0.126 0.097 0.184" fill="#ffb92c"/></g><g transform="translate(461.63 369.35)"><path d="m0 0c-0.771 0.392-1.431 0.916-1.939 1.434-0.401-0.783-0.604-1.632-0.657-1.981-3e-3 -0.017-0.025-0.025-0.029-0.04 0.901-0.36 1.932-0.658 2.903-0.658 0 0-0.229 0.561-0.278 1.245" fill="#ffb92c"/></g><g transform="translate(453.38 370.3)"><path d="m0 0s1.116-1.228 2.113-1.787c0 0 0.116 0.58 0.453 1.075-1.049 1.092-1.646 2.44-1.927 3.452-0.29-0.291-0.528-0.565-0.639-0.701-0.148-0.182-0.367-0.285-0.593-0.293-0.229-3e-3 -0.452 0.09-0.612 0.256-0.289 0.319-0.5 0.649-0.682 0.992-1.09-1.47-1.746-2.827-2.121-3.735 1.18 7e-3 2.27-0.252 2.744-0.623 0.182 0.322 0.534 0.797 1.264 1.364" fill="#ffb92c"/></g><g transform="translate(505.86 312.28)"><path d="m 0,0 c -1.31,-0.07 -2.867,-7.357 -7.812,-7.326 4.619,0 6.988,3.452 7.997,4.924 0.152,0.214 0.266,0.385 0.356,0.497 0.481,0.589 1.387,0.771 2.762,1.034 1.584,0.306 3.759,0.722 6.188,1.935 3.241,1.621 3.756,4.939 3.971,6.357 C 12.164,1.4 1.309,0.067 0,0" fill="#ffb92c"/></g><g transform="translate(519.33 325.56)"><path d="m0 0c-0.875 1.568-3.137 2.782-5.12 3.655-1.387 0.293-2.789 0.403-4.057 0.891-2.984 1.141-2.851 3.166-5.369 6.014-2.514 2.843-8.257 3.314-11.464 1.062v0.02c-0.229-0.278-0.452-0.56-0.693-0.83-1.735-3.15 1.431-7.305 3.515-8.833 1.654-1.217 2.981-1.445 3.697-1.568 0.058-7e-3 0.077-0.02 0.125-0.027l7.88 0.409c1.719 0.749 3.83 0.85 5.731-0.189 0 0 0.872-0.422 0.672-1.019-0.067-0.2-0.148-0.123-0.571-0.019-0.027 7e-3 -0.171 0.052-0.2 0.067-2.125 0.776-4.19 0.297-5.581-0.549-1.205-0.73-2.195-1.769-3.148-2.777-0.226-0.232-0.434-0.454-0.648-0.671-8e-3 -6e-3 -8e-3 -0.011-0.015-0.015 0-4e-3 -8e-3 -4e-3 -8e-3 -4e-3 -0.5-0.512-0.997-0.964-1.52-1.353 1.008-0.601 1.687-1.066 1.772-1.123 0.356-0.25 0.445-0.751 0.189-1.109-0.249-0.36-0.745-0.449-1.104-0.197-0.06 0.037-5.747 3.968-9.559 3.968h-7e-3c-2.659 0-5.518-0.653-8.358-5.328-0.745-1.22-0.978-2.332-0.701-3.31 0.201-0.695 0.631-1.225 1.027-1.596 0.405 1.076 0.672 1.614 1.11 2.008 0.7 0.642 1.074 0.745 1.412 0.454 0.338-0.276-0.041-0.615-0.312-0.96-0.797-1.023-1.43-2.54-0.897-4.52 0.39-1.42 1.346-2.056 2.043-2.519 0.43-0.292 0.775-0.519 0.928-0.911 0.326-0.856 1.679-2.999 3.962-2.702 1.362 0.188 1.955 1.057 2.474 1.824 0.382 0.56 0.778 1.142 1.49 1.142h0.023c4.945-0.031 6.503 7.256 7.812 7.326 1.309 0.067 12.164 1.4 13.462 7.421 0.074 0.492 0.109 0.718 0.275 0.932 0 4e-3 1.223 2.262-0.267 4.936" fill="#ffe242"/></g><g transform="translate(500.35 325.86)"><path d="m0 0c0.182-0.059 0.612-0.229 3.188-2.943 0.012 0.018 0.031 0.033 0.049 0.047 0.979 1.035 2.091 2.203 3.478 3.044 0.241 0.145 0.515 0.234 0.775 0.345l-7.88-0.409c0.157-0.028 0.309-0.056 0.39-0.084" fill="#ffb92c"/></g><g transform="translate(488.93 345.91)"><path d="m0 0c-1.075-0.522-2.095-0.729-3.056-0.804-0.599-0.523-0.318-1.402-3.025-4.479-2.999-3.404-8.505-4.733-10.841-5.031-1.253-0.36-2.128-0.504-2.239-0.516-0.037-9e-3 -0.068-9e-3 -0.097-9e-3 -0.4 0-0.741 0.298-0.794 0.706-0.052 0.434 0.26 0.83 0.694 0.883 0.086 0.013 7.345 1.02 12.387 7.654 0.716 1.044 0.375 1.133-0.092 1.333h3e-3c-0.374 0.143-0.615 0.263-0.652 0.281-0.386 0.209-0.523 0.691-0.318 1.077 0.207 0.384 0.693 0.533 1.078 0.324 0.119-0.062 3.021-1.564 6.252 0.017 0.392 0.188 0.871 0.033 1.067-0.368 0.193-0.393 0.03-0.873-0.367-1.068m-21.476 1.949c-0.852-0.313-1.779-0.491-2.613-0.491-1.131 0-1.902 0.318-2.221 0.927-0.245 0.46-0.255 1.06-0.03 1.649 0.23 0.599 0.92 1.713 2.951 2.441 0.687 0.252 1.417 0.384 2.095 0.384 1.428 0 2.474-0.574 2.726-1.503 0.337-1.246-0.857-2.649-2.908-3.407m-17.047-4.168c-0.349-0.567-0.834-0.339-0.576 0.225 0.041 0.087 0.227 0.786 0.972 2.217-0.993 1.12-3.125 3.941-3.399 7.692-0.201 2.716 0.47 4.807 1.345 6.346 0.46 0.745-0.734 0-1.108 0.17-0.274 0.125-0.353 0.525-0.082 0.868 0.089 0.109 1.854 2.276 4.608 2.48 0 0 0.023 4e-3 0.037 4e-3 0.42 0.028 0.854 0.019 1.317-0.061 1.888-0.325 3.675-1.66 5.105-2.728 0.698-0.522 1.354-1.008 1.825-1.232 1.479-0.696 2.069-0.851 2.866-0.204 0.341 0.28 0.382 0.569 0.583 0.435 0.162-0.105 0.166-0.392 0.013-0.807-0.248-0.675-0.871-1.245-1.375-1.391 1.154-2.329 0.853-4.746 0.834-4.868-0.041-0.293-0.24-0.538-0.518-0.642-9.118-3.274-11.417-6.818-12.447-8.504m16.944 19.134c0.445 0.941 1.943 3.1 3.949 5.102 7e-3 7e-3 0.019 0.022 0.026 0.03 0.89 0.89 1.898 1.742 3.018 2.462 0.827 0.534 1.643 0.923 2.454 1.242 0.101 0.074 0.212 0.133 0.338 0.15 0.019 5e-3 0.037 5e-3 0.056 5e-3 3.329 1.187 6.44 0.594 7.485-0.978 0.245-0.367 0.379-0.813 0.2-0.923-0.122-0.078-0.337-0.086-0.675 0.196-0.623 0.525-1.793 0.671-2.272 0.656 2.069-1.32 3.704-3.718 4.456-6.846 0.868-3.639-0.226-6.924-0.912-8.439 1.473-0.547 2.307-1.221 2.393-1.372 0.125-0.21 0.07-0.32-1.395 0-2.492 0.547-7.396 0.677-9.521 0.555h-0.023c-1.973-0.071-4.152-0.272-6.451-0.683-0.382-0.063-0.761 0.145-0.894 0.504-0.029 0.091-0.819 2.255-1.027 4.975-0.06 0.799-0.063 1.54-0.033 2.217 0.025 1.025 0.037 1.343-0.642 0.541-0.122-0.15-0.237-0.288-0.307-0.369-0.612-0.693-0.793-0.107-0.223 0.975m8.902 18.591c-1.116 0.155-2.258 0.272-3.459 0.318-0.197 0.012-0.382 0.095-0.523 0.231-0.029 0.025-2.885 2.73-7.167 2.467-1.742-0.113-3.247-0.686-4.839-1.299-2.365-0.906-4.797-1.836-8.119-1.309 0.058-0.563 0.311-1.347 1.138-2.005 0.311-0.248 0.389-0.685 0.189-1.028-4e-3 -0.012-0.223-0.394-0.448-0.972-0.364-0.949-0.742-2.447-0.182-3.685 0.348 0.358 0.782 0.759 1.22 1.064 0.233 0.157 0.53 0.18 0.786 0.066 0.256-0.118 0.434-0.363 0.463-0.644 0-0.032 0.342-3.097 2.391-4.513 0.223 0.737 0.623 1.74 1.287 2.525 0.16 0.187 0.386 0.282 0.649 0.282 0.248-0.015 0.475-0.141 0.615-0.347 0.082-0.115 1.851-2.612 4.427-2.222-0.267 0.594-0.512 1.421-0.459 2.379 0.011 0.231 0.122 0.438 0.297 0.58 0.178 0.14 0.4 0.204 0.63 0.161 0.037-2e-3 3.815-0.815 6.44 1.319 0.011 6e-3 0.019 0.01 0.026 0.014 0.341 0.279 0.523 0.508 0.912 0.299 0.334-0.173 0.148-0.588-0.141-0.922-0.152-0.182-0.367-0.286-0.541-0.438-0.029-0.057-0.049-0.122-0.097-0.183-1.286-1.723-3.403-2.568-5.365-3.013 0.064-0.104 0.119-0.186 0.122-0.186 0.156-0.192 0.212-0.456 0.149-0.7-0.059-0.245-0.241-0.441-0.475-0.54-1.717-0.7-3.288-0.413-4.557 0.233 0.049-0.683 0.279-1.245 0.279-1.245-0.972 0-2.002 0.298-2.904 0.659-0.047-0.217-0.167-0.416-0.355-0.524-0.212-0.126-0.464-0.144-0.69-0.058-0.841 0.324-1.472 0.84-2.013 1.412-0.338-0.495-0.453-1.076-0.453-1.076-0.997 0.56-2.114 1.788-2.114 1.788-0.73-0.568-1.082-1.042-1.263-1.365 0.152-0.122 0.24-0.258 0.24-0.396-3e-3 -0.568-0.125-0.616-1.772-0.557-0.033 0-0.052-2e-3 -0.078-2e-3 -2.072 0.047-4.482-0.353-5.598-2.693-1.565-3.263-0.775-7.71 0.089-11.214 0.715-2.913 0.849-3.613 0.204-6.463l-0.219-0.962c-0.06-0.233-0.118-0.482-0.186-0.747-1.134-4.624 1.472-11.644 9.904-16.121 9.106-4.841 19.135-2.379 19.236-2.358 1.649 0.376 3.236 0.858 4.757 1.423 11.482 4.429 16.154 16.635 16.251 22.506 0.103 5.861-0.871 24.442-18.684 30.061" fill="#ffe242"/></g><g transform="translate(485.38 345.03)"><path d="m0 0c-0.07 0-0.13 0-0.192-2e-3h-0.06c-0.519-0.017-0.816-0.142-1.591-1.308l-7e-3 4e-3c-3.771-5.218-8.699-7.305-11.516-8.132 2.336 0.298 7.842 1.627 10.841 5.031 2.707 3.077 2.425 3.956 3.025 4.479-0.17-0.015-0.359-0.061-0.529-0.067z" fill="#ffb92c"/></g><g transform="translate(472.95 323.75)"><path d="m0 0c-0.155 0-0.188 0.026-0.308 0.167-0.115 0.138 0.064 0.76 0.308 1.123 0.445 0.635 0.668 0.685 0.668 0.685-1.054-0.215-3.245-0.57-6.063-0.57-0.066 0-0.137 6e-3 -0.2 6e-3 0.207-1.048 1.069-2.802 4.435-3.258 0.638-0.085 1.387-0.062 2.183 0.029-1.249 0.272-1.245 1.132-1.023 1.818" fill="#c93d3d"/></g><g transform="translate(489.41 333.24)"><path d="m0 0c-2.907-2.441-6.337-4.462-10.196-5.897-3.011-1.02-4.268-2.203-5.347-3.02-0.192-0.146-0.663-0.579-0.89-0.579-7e-3 0-0.011 6e-3 -0.022 6e-3 -0.222-0.686-0.226-1.546 1.023-1.819 4.884 0.558 12.155 4.379 15.432 11.309" fill="#ff4942"/></g><g transform="translate(522.69 316)"><path d="m0 0c-0.771 0.239-1.561 0.512-2.395 0.887-0.585-1.692-1.743-3.662-4.126-4.901 3.199-2.667 6.195-3.801 9.614-5.077 1.06-0.393 2.187-0.825 3.359-1.309-0.441 1.083-1.186 2.703-2.299 4.355-1.454 2.147-3.299 3.958-4.153 6.045" fill="#c93d3d"/></g><g transform="translate(540.31 309.21)"><path d="m0 0c-5.221 4.577-8.832 5.138-12.659 5.732-1.582 0.242-3.203 0.514-4.957 1.051 0.853-2.087 2.699-3.898 4.153-6.045 1.112-1.652 1.858-3.272 2.299-4.355 0.044-0.021 0.089-0.031 0.133-0.052 0.022-7e-3 0.045-7e-3 0.063-0.019 4e-3 -3e-3 0.015-0.01 0.023-0.014 1.542-0.647 3.17-1.398 4.916-2.399 5.632-3.211 8.231-7.31 9.381-9.892 0.916 3.822 1.872 11.414-3.352 15.993" fill="#ff4942"/></g><g transform="translate(461.83 353.52)"><path d="m0 0c-4.913-1.847-7.964-3.824-10.015-6.108-0.83 0.962-2.365 3.116-2.74 6.006 1.057-0.945 2.44-1.496 3.927-1.496 3.252 0 5.891 2.642 5.891 5.896 0 0.329-0.037 0.661-0.092 0.984 0.344-0.235 0.667-0.436 0.975-0.577 0.267-0.126 0.533-0.237 0.793-0.337 1.191-1.561 1.291-3.497 1.261-4.368m-5.573 5.182c0.478 0 0.864-0.384 0.864-0.863s-0.386-0.863-0.864-0.863c-0.475 0-0.864 0.384-0.864 0.863s0.389 0.863 0.864 0.863m7.119-5.868c0.018 0.123 0.319 2.54-0.834 4.869 0.504 0.146 1.127 0.715 1.375 1.39 0.152 0.415 0.148 0.702-0.014 0.808-0.201 0.134-0.242-0.155-0.583-0.436-0.797-0.646-1.386-0.491-2.866 0.204-0.471 0.225-1.127 0.71-1.824 1.233-1.431 1.068-3.218 2.403-5.106 2.727-0.463 0.08-0.896 0.089-1.316 0.062-0.015 0-0.025-4e-3 -0.025-4e-3 -2.766-0.204-4.532-2.371-4.621-2.48-0.27-0.343-0.192-0.744 0.082-0.869 0.374-0.17 1.569 0.576 1.109-0.17-0.875-1.539-1.546-3.629-1.346-6.345 0.275-3.751 2.406-6.573 3.4-7.693-0.746-1.43-0.931-2.13-0.972-2.216-0.259-0.564 0.226-0.792 0.575-0.225 1.03 1.685 3.329 5.229 12.447 8.504 0.279 0.103 0.478 0.348 0.519 0.641" fill="#191919"/></g><g transform="translate(474.02 362.63)"><path d="m0 0c0 0.473 0.386 0.862 0.86 0.862 0.482 0 0.871-0.389 0.871-0.862 0-0.48-0.389-0.87-0.871-0.87-0.474 0-0.86 0.39-0.86 0.87m-2.626-5.842c3.252 0 5.959 2.221 5.959 5.473 0 2.51-1.617 4.674-3.879 5.512 0.546 0.47 1.12 0.914 1.736 1.306 0.808 0.52 1.576 0.881 2.317 1.161 3.307 0.426 6.236-2.232 7.308-6.689 0.857-3.574-0.375-6.522-0.908-7.567-3.033 0.359-7.642 0.577-13.048-0.317-0.059 0.209-0.196 0.899-0.274 1.195 0.264-0.037 0.519-0.074 0.789-0.074m-3.818 5.062c0.07 0.081 0.185 0.218 0.307 0.368 0.679 0.803 0.667 0.484 0.642-0.541-0.029-0.677-0.026-1.418 0.033-2.217 0.208-2.72 0.998-4.884 1.027-4.975 0.133-0.359 0.512-0.567 0.894-0.503 2.299 0.411 4.478 0.611 6.451 0.682h0.023c2.125 0.122 7.029-8e-3 9.521-0.555 1.465-0.32 1.52-0.209 1.395 0-0.086 0.151-0.92 0.826-2.393 1.373 0.687 1.514 1.78 4.799 0.912 8.438-0.752 3.128-2.387 5.526-4.456 6.847 0.479 0.014 1.65-0.132 2.273-0.657 0.337-0.282 0.552-0.274 0.674-0.196 0.179 0.111 0.045 0.556-0.2 0.923-1.045 1.572-4.156 2.165-7.485 0.979-0.019 0-0.037 0-0.056-5e-3 -0.126-0.018-0.237-0.077-0.338-0.151-0.811-0.319-1.627-0.708-2.454-1.242-1.12-0.72-2.128-1.572-3.018-2.462-7e-3 -8e-3 -0.019-0.022-0.026-0.03-2.006-2.002-3.504-4.16-3.949-5.102-0.57-1.082-0.389-1.668 0.223-0.974" fill="#191919"/></g><g transform="translate(482.92 313.91)"><path d="m0 0c-1.721-3.604-2.573-5.317-4.282-8.576-3.516-0.136-5.274-0.037-8.751 0.363-2.006 3.189-2.733 4.777-4.297 7.995 1.305 2.748 2.12 4.323 4.037 6.865 3.485 0.021 5.243 0.136 8.772 0.677z" fill="#ffb92c"/></g><g transform="translate(481.67 313.7)"><path d="m0 0c-1.469-3.029-2.203-4.476-3.668-7.254-3.014-0.105-4.52-0.039-7.508 0.25-1.768 2.648-2.472 4.16-3.663 6.863 1.302 2.745 1.872 3.864 3.441 5.95 3 0.02 4.505 0.107 7.523 0.507z" fill="#191919"/></g><g transform="translate(476.13 309.45)"><path d="m0 0c-0.159 0-0.312-4e-3 -0.464-4e-3 -1.238 0-2.279 0.058-3.422 0.152-0.66 1.066-1.149 1.98-1.653 3.05 1.108-0.03 2.354-0.051 3.659-0.051 1.153 0 2.34 0.027 3.512 0.064-0.549-1.112-1.039-2.072-1.632-3.211m-4.286 7.026c1.453 0.03 2.714 0.097 4.371 0.275l0.497-0.809c-0.27-0.536-0.549-1.075-0.838-1.635-1.872-0.026-3.719-3e-3 -5.28 0.034 0.404 0.788 0.764 1.421 1.25 2.135m7.775-2.034c-0.682-0.039-1.305-0.07-1.809-0.091 0.248 0.479 0.448 0.875 0.645 1.273 0.067 0.129 0.129 0.259 0.196 0.396l-1.049 1.713-0.508 0.825c-2.377-0.295-3.889-0.375-6.137-0.4-1.131-1.556-1.668-2.583-2.642-4.62 0.922-2.078 1.589-3.465 2.951-5.553 1.62-0.15 2.877-0.231 4.4-0.231 0.457 0 0.943 6e-3 1.502 0.02 1.143 2.175 1.832 3.546 2.955 5.851z" fill="#ff4942"/></g><g transform="translate(449.34 330.11)"><path d="m0 0c-7.646 5.391-7.779 12.892-7.512 15.733-0.371-0.324-0.794-0.591-1.209-0.763-0.241-0.101-0.497-0.043-0.652 0.12-0.305 0.319 0.037 0.478 0.363 0.771 1.461 1.28 2.08 4.538 0.782 8.057l-1.083 2.41c-0.148 0.597-2.027 3.663-5.386 4.457-0.163 0.048-10.879 2.811-14.794-3.545-2.155-3.492-2.107-5.157-1.587-6.87 0.627-2.063 2.276-3.805 4.201-4.436 0.381-0.124 0.741-0.225 1.082-0.306 0.72-0.169 1.354-0.252 1.891-0.282 0.474-0.026 0.842-7e-3 1.161 0.022-0.367 0.972 0.192 2.125 0.192 2.125s0.286-1.513 1.09-1.845l0.367-0.176c4e-3 0 0.027-0.011 0.071-0.032 0.296-0.138 1.524-0.67 2.699-0.67h8e-3c1.798 3e-3 3.058 1.084 4.368 3.268l0.147-0.041c1.039-3.915-3.099-5.124-4.511-5.126h-0.012c-1.353 0-2.673 0.487-3.278 0.749-0.644-0.146-2.024-0.336-3.974 0.026-0.423-0.257-1.465-1.088-1.176-2.918 0.279-1.752 1.302-1.943 2.719-2.019 0.181-9e-3 0.341-0.019 0.478-0.033 0.912-0.097 1.516-0.386 2.098-0.667 0.761-0.364 1.624-0.78 3.638-0.913 0.626-0.036 1.921-0.3 3.544 0.746 0.979-1.005 1.972-2.299 3.185-3.89 0.76-0.997 1.61-2.121 2.607-3.357 4.727-5.89 11.946-6.598 13.351-6.682l0.656-0.035c1.81-0.087 2.514-0.213 3.504-1.286-0.889 1.175-2.251 2.629-9.028 7.408" fill="#ffe242"/></g></g></g></svg>
